<?xml version="1.0" encoding="UTF-8" standalone="no"?>
<svg
   xmlns:dc="http://purl.org/dc/elements/1.1/"
   xmlns:cc="http://creativecommons.org/ns#"
   xmlns:rdf="http://www.w3.org/1999/02/22-rdf-syntax-ns#"
   xmlns:svg="http://www.w3.org/2000/svg"
   xmlns="http://www.w3.org/2000/svg"
   xmlns:sodipodi="http://sodipodi.sourceforge.net/DTD/sodipodi-0.dtd"
   xmlns:inkscape="http://www.inkscape.org/namespaces/inkscape"
   inkscape:version="1.0 (4035a4fb49, 2020-05-01)"
   sodipodi:docname="chess-335030.svg"
   id="svg278"
   viewBox="0 0 532 311.85205"
   version="1.1"
   enable-background="new 0 0 532 311.85205"
   height="311.85px"
   width="532px">
  <metadata
     id="metadata284">
    <rdf:RDF>
      <cc:Work
         rdf:about="">
        <dc:format>image/svg+xml</dc:format>
        <dc:type
           rdf:resource="http://purl.org/dc/dcmitype/StillImage" />
      </cc:Work>
    </rdf:RDF>
  </metadata>
  <defs
     id="defs282" />
  <sodipodi:namedview
     inkscape:current-layer="svg278"
     inkscape:window-maximized="0"
     inkscape:window-y="0"
     inkscape:window-x="0"
     inkscape:cy="156.82094"
     inkscape:cx="75.680259"
     inkscape:zoom="1.9718045"
     showgrid="false"
     id="namedview280"
     inkscape:window-height="797"
     inkscape:window-width="2246"
     inkscape:pageshadow="2"
     inkscape:pageopacity="0"
     guidetolerance="10"
     gridtolerance="10"
     objecttolerance="10"
     borderopacity="1"
     bordercolor="#666666"
     pagecolor="#ffffff" />
  <path
     inkscape:export-ydpi="100.8"
     inkscape:export-xdpi="100.8"
     id="path2"
     stroke-width="0.300803"
     stroke="#000000"
     d="m 250.35961,157.58627 c 1.20293,-0.84722 1.71105,-1.98046 1.71105,-3.22757 0,-0.36517 0.0434,-17.56737 0.0434,-17.56737 H 237.7945 c 0,0 -0.0673,17.35022 -0.0673,17.56737 0,1.25633 0.7474,2.3974 1.96685,3.24664 -0.86249,0.14948 -1.71541,0.33258 -2.55884,0.55292 1.34888,1.02671 2.62305,2.22569 3.80171,3.59324 1.67023,1.93502 3.05211,4.07787 4.13701,6.38841 1.08482,-2.31054 2.46759,-4.45339 4.13613,-6.38841 1.18123,-1.36755 2.4563,-2.56858 3.80518,-3.59525 -0.86273,-0.22245 -1.75214,-0.40253 -2.64156,-0.56143 z" />
  <path
     inkscape:export-ydpi="100.8"
     inkscape:export-xdpi="100.8"
     style="stroke-width:0.970645"
     id="path4"
     d="m 263.53182,196.68491 c -0.88593,-2.11552 -0.91022,-4.88166 -0.51679,-6.74995 0.40301,-1.92198 4.2256,-5.55918 4.2256,-5.55918 6.73402,-7.80098 8.27573,-18.92116 3.4447,-24.83627 -4.83271,-5.91458 -14.2066,-4.38199 -20.94035,3.41994 -2.0107,2.33066 -3.5533,4.95666 -4.60778,7.65246 -1.0536,-2.6958 -2.59789,-5.3218 -4.60779,-7.65246 -6.73268,-7.80193 -16.10817,-9.33452 -20.94035,-3.41994 -4.83059,5.91458 -3.28799,17.03561 3.44434,24.83627 0.304,0.35171 3.65976,3.6372 4.0632,5.55918 0.40258,1.91998 0.4586,4.67998 -0.50985,6.82124 h 0.14548 c -0.0213,0.0145 -0.0422,0.0238 -0.0639,0.0382 5.57182,3.27301 11.84254,5.11439 18.47401,5.11439 6.62613,-0.0106 12.80756,-1.9597 18.38418,-5.23293" />
  <g
     inkscape:export-ydpi="100.8"
     inkscape:export-xdpi="100.8"
     transform="matrix(0.88941356,0,0,1.0592965,7.3184601,-37.875117)"
     id="g10"
     stroke-width="1.0089"
     stroke-linecap="round"
     stroke="#ffffff">
    <path
       id="path6"
       d="m 247.72,221.06 c 6.0293,-2.8135 12.696,-4.375 19.788,-4.375 6.8125,0 13.351,1.6728 19.184,4.0488" />
    <path
       id="path8"
       d="m 289.59,209.38 c -6.2793,-2.1309 -13.974,-3.3867 -22.288,-3.3867 -8.3867,0 -16.142,1.2793 -22.452,3.4443" />
  </g>
  <polygon
     inkscape:export-ydpi="100.8"
     inkscape:export-xdpi="100.8"
     transform="matrix(0.88941356,0,0,1.0592965,7.3184601,-37.875117)"
     id="polygon12"
     stroke-width="0.61992"
     stroke-linejoin="bevel"
     stroke="#ffffff"
     fill="none"
     points="273.92,166.06 260.41,178.17 273.92,178.17 260.41,166.06 " />
  <path
     inkscape:export-ydpi="100.8"
     inkscape:export-xdpi="100.8"
     id="path14"
     stroke-width="0.979284"
     stroke-linecap="round"
     stroke="#ffffff"
     fill="none"
     d="m 261.38834,191.74859 c -5.14277,-2.15069 -10.61426,-3.71061 -16.28961,-3.71061 -5.78466,0 -11.35692,1.60345 -16.58312,3.82956" />
  <polygon
     inkscape:export-ydpi="100.8"
     inkscape:export-xdpi="100.8"
     transform="matrix(0.88941356,0,0,1.0592965,7.3184601,-37.875117)"
     id="polygon16"
     stroke-width="0.31703"
     stroke="#000000"
     fill="#ffffff"
     points="264.18,209.96 267.35,211.54 270.52,209.96 267.35,208.37 " />
  <polygon
     inkscape:export-ydpi="100.8"
     inkscape:export-xdpi="100.8"
     transform="matrix(0.88941356,0,0,1.0592965,7.3184601,-37.875117)"
     id="polygon18"
     stroke-width="0.31703"
     stroke="#000000"
     fill="#ffffff"
     points="251.23,212.02 254.61,213.07 257.48,211 254.1,209.94 " />
  <polygon
     inkscape:export-ydpi="100.8"
     inkscape:export-xdpi="100.8"
     transform="matrix(0.88941356,0,0,1.0592965,7.3184601,-37.875117)"
     id="polygon20"
     stroke-width="0.31703"
     stroke="#000000"
     fill="#ffffff"
     points="283.48,212.02 280.09,213.07 277.22,211 280.6,209.94 " />
  <rect
     inkscape:export-ydpi="100.8"
     inkscape:export-xdpi="100.8"
     id="rect22"
     stroke-width="0.601723"
     stroke-linejoin="bevel"
     stroke="#ffffff"
     fill="none"
     height="12.82808"
     width="12.021314"
     y="138.03166"
     x="238.93065" />
  <ellipse
     inkscape:export-ydpi="100.8"
     inkscape:export-xdpi="100.8"
     id="ellipse24"
     stroke-width="0.601723"
     stroke="#ffffff"
     fill="none"
     ry="4.4582615"
     rx="5.0680566"
     cy="156.69646"
     cx="245.04091" />
  <path
     inkscape:export-ydpi="100.8"
     inkscape:export-xdpi="100.8"
     id="path26"
     stroke-width="1.17516"
     stroke="#20201e"
     fill="#ffffff"
     d="m 252.13844,43.314663 h -14.31867 v 17.822664 c 0,2.623877 3.22234,4.753381 7.19518,4.753381 3.97541,0 7.09529,-2.129398 7.09529,-4.753381 0,-0.231986 0.0267,-17.822664 0.0267,-17.822664 z" />
  <rect
     inkscape:export-ydpi="100.8"
     inkscape:export-xdpi="100.8"
     id="rect28"
     stroke-width="1.17516"
     stroke="#20201e"
     fill="#ffffff"
     height="15.281411"
     width="14.318669"
     y="43.314659"
     x="237.81888" />
  <line
     inkscape:export-ydpi="100.8"
     inkscape:export-xdpi="100.8"
     id="line30"
     stroke-width="1.17516"
     stroke="#20201e"
     fill="#ffffff"
     y2="58.595016"
     y1="43.314659"
     x2="252.13844"
     x1="237.81888" />
  <line
     inkscape:export-ydpi="100.8"
     inkscape:export-xdpi="100.8"
     id="line32"
     stroke-width="1.17516"
     stroke="#20201e"
     fill="#ffffff"
     y2="58.595016"
     y1="43.314659"
     x2="237.81888"
     x1="252.13844" />
  <path
     inkscape:export-ydpi="100.8"
     inkscape:export-xdpi="100.8"
     id="path34"
     stroke-width="1.17516"
     stroke-linejoin="round"
     stroke="#20201e"
     fill="#ffffff"
     d="m 263.46957,103.15962 c -5.57102,-3.274075 -11.62642,-4.995431 -18.25878,-4.995431 -6.63235,0 -12.97476,1.835654 -18.54694,5.109201 5.57227,3.27407 11.80697,5.15941 18.43844,5.15941 6.63502,0.0106 12.79866,-1.99148 18.36639,-5.26471 z" />
  <path
     inkscape:export-ydpi="100.8"
     inkscape:export-xdpi="100.8"
     id="path36"
     stroke-width="1.17516"
     stroke-linejoin="bevel"
     stroke="#20201e"
     fill="#ffffff"
     d="m 266.25343,91.931076 c 0.31964,-0.333096 0.63666,-0.673956 0.94758,-1.033439 6.73313,-7.80246 8.27573,-18.922213 3.4447,-24.836266 -4.83272,-5.914582 -14.2066,-4.381992 -20.93946,3.419939 -2.01159,2.330135 -3.55508,4.95719 -4.60859,7.652464 -1.05271,-2.695274 -2.597,-5.322329 -4.60778,-7.652464 -6.73269,-7.801931 -16.10906,-9.334521 -20.93947,-3.419939 -4.83227,5.914053 -3.29012,17.034547 3.4439,24.836266 0.31182,0.36051 0.63015,0.702917 0.95194,1.036024 5.81374,-2.600149 13.16243,-4.153926 21.15648,-4.153926 7.98693,0 15.33349,1.557166 21.14136,4.152443 z" />
  <path
     inkscape:export-ydpi="100.8"
     inkscape:export-xdpi="100.8"
     id="path38"
     stroke-width="1.17516"
     stroke="#20201e"
     fill="#ffffff"
     d="m 245.10318,77.143297 c 1.05359,-2.695804 2.59699,-5.322329 4.60858,-7.651405 1.63901,-1.901331 3.43696,-3.427247 5.28783,-4.566627 -3.06954,-1.028259 -6.40306,-1.592546 -9.89117,-1.592546 -3.48988,0 -6.82696,0.565855 -9.89739,1.595724 1.84829,1.138956 3.64535,2.663707 5.28436,4.563555 2.01008,2.330453 3.54876,4.957508 4.60716,7.648121 z" />
  <path
     inkscape:export-ydpi="100.8"
     inkscape:export-xdpi="100.8"
     id="path40"
     stroke-width="1.17516"
     stroke-linejoin="bevel"
     stroke="#20201e"
     fill="#ffffff"
     d="m 266.17338,91.931076 -0.004,-0.0053 c -5.81071,-2.597078 -13.15531,-4.148205 -21.14224,-4.148205 -7.99388,0 -15.34239,1.553776 -21.1556,4.153925 0,0 2.78849,2.601208 3.19202,4.522666 0.40301,1.919975 0.57586,4.673728 -0.39302,6.814568 5.57146,-3.273551 11.91458,-5.109206 18.54694,-5.109206 6.50553,0 12.76842,1.838727 18.25877,4.995436 -0.88594,-2.11393 -0.88768,-4.833576 -0.49508,-6.700798 0.40023,-1.906733 3.19299,-4.512603 3.19299,-4.512603 z" />
  <path
     inkscape:export-ydpi="100.8"
     inkscape:export-xdpi="100.8"
     id="path42"
     stroke-width="1.17516"
     stroke-linejoin="bevel"
     stroke="#20201e"
     fill="#ffffff"
     d="m 226.66563,103.27614 c 5.57147,-3.27354 11.91459,-5.109197 18.54694,-5.109197 6.50553,0 12.76753,1.838727 18.25877,4.995427 -0.37696,-0.90309 -0.77302,-3.209453 -0.70961,-4.495757 -5.5189,-2.584048 -11.45387,-3.996726 -17.63708,-3.996726 -6.25453,0 -12.25256,1.442021 -17.82384,4.08041 0.0711,2.383413 -0.21346,3.580423 -0.63149,4.512603 z" />
  <polygon
     inkscape:export-ydpi="100.8"
     inkscape:export-xdpi="100.8"
     transform="matrix(0.88941356,0,0,1.0592965,7.3184601,-37.875117)"
     id="polygon44"
     points="264.29,121.96 267.39,123.51 270.48,121.96 267.39,120.41 " />
  <polygon
     inkscape:export-ydpi="100.8"
     inkscape:export-xdpi="100.8"
     transform="matrix(0.88941356,0,0,1.0592965,7.3184601,-37.875117)"
     id="polygon46"
     points="251.62,123.98 254.92,125.01 257.73,122.98 254.43,121.95 " />
  <polygon
     inkscape:export-ydpi="100.8"
     inkscape:export-xdpi="100.8"
     transform="matrix(0.88941356,0,0,1.0592965,7.3184601,-37.875117)"
     id="polygon48"
     points="283.15,123.98 279.85,125.01 277.04,122.98 280.34,121.95 " />
  <ellipse
     inkscape:export-ydpi="100.8"
     inkscape:export-xdpi="100.8"
     id="ellipse50"
     stroke-width="1.17516"
     stroke="#20201e"
     fill="#ffffff"
     ry="4.4577317"
     rx="5.0689459"
     cy="63.574772"
     cx="245.10318" />
  <path
     inkscape:export-ydpi="100.8"
     inkscape:export-xdpi="100.8"
     id="path52"
     stroke-width="0.828077"
     stroke-linejoin="bevel"
     stroke="#000000"
     d="m 343.24996,152.37453 c 0.75653,-1.54657 0.31964,-3.53063 -0.97889,-4.4322 -1.29587,-0.90205 -2.96183,-0.38069 -3.71917,1.16533 -0.64969,1.32518 -0.41865,2.96942 0.47684,3.98063 -3.70529,5.35029 -10.46662,15.1098 -12.10047,17.47627 -0.47945,-0.25447 -0.97631,-0.49706 -1.49217,-0.72412 0.14592,-1.81394 1.2169,-15.66806 1.78577,-23.03546 1.23424,0.0336 2.37206,-0.93982 2.69519,-2.42484 0.37609,-1.73269 -0.49769,-3.50013 -1.95164,-3.94906 -1.45571,-0.44792 -2.93925,0.59275 -3.31618,2.32495 -0.32224,1.48397 0.27533,2.99272 1.36889,3.67809 -2.67953,7.24124 -7.87878,21.29927 -7.89176,21.35753 -0.003,0.014 -8.7e-4,0.0285 -0.004,0.0424 -0.4725,-0.0678 -0.95808,-0.1262 -1.45134,-0.17482 -0.099,-0.77896 -2.32867,-17.0748 -3.49166,-25.56189 1.33589,-0.37188 2.33213,-1.79582 2.33213,-3.50065 0,-1.98873 -1.35325,-3.60098 -3.02348,-3.60098 -1.66854,0 -3.02258,1.61225 -3.02258,3.60098 0,1.70483 0.99712,3.12873 2.33293,3.50065 -1.15695,8.44853 -3.37265,24.63394 -3.48899,25.54812 -0.51766,0.0486 -1.02229,0.10862 -1.51654,0.17637 -0.004,-0.0201 -0.003,-0.0373 -0.008,-0.0564 -0.0122,-0.0579 -5.21232,-14.11725 -7.89008,-21.3586 1.09265,-0.68327 1.69024,-2.19253 1.36801,-3.67756 -0.37696,-1.73174 -1.86137,-2.77239 -3.31618,-2.32388 -1.45312,0.44844 -2.32777,2.21636 -1.95084,3.94799 0.32311,1.48546 1.46006,2.45842 2.6943,2.42431 0.56804,7.35978 1.63554,21.18487 1.78576,23.02911 -0.50724,0.21878 -0.99365,0.45465 -1.4661,0.70189 -1.69807,-2.45842 -8.38433,-12.11094 -12.06312,-17.41908 0.89724,-1.01119 1.12911,-2.65544 0.47945,-3.98062 -0.75653,-1.54604 -2.4233,-2.06743 -3.72095,-1.16533 -1.29677,0.90153 -1.73454,2.88563 -0.97711,4.4322 0.64881,1.32359 1.9656,1.8936 3.14594,1.46066 2.21224,6.86213 9.35307,28.94846 9.62612,29.25248 h 0.003 c 0.005,0.0382 0.70701,5.51681 0.78432,7.33329 0.0773,1.80716 -0.5828,6.22856 -0.53503,6.25441 v 0.004 c 8.7e-4,0 0.002,-0.002 0.003,-0.002 5.29565,2.95342 11.32668,4.61376 17.79449,4.61376 6.52812,0 18.31214,-4.75444 18.25699,-4.78547 -0.77041,-1.9365 -0.47944,-13.42023 -0.47944,-13.42023 0.27273,-0.30724 7.507,-22.20815 9.77732,-29.25036 1.16513,0.43432 2.48146,-0.1377 3.13074,-1.46183" />
  <g
     inkscape:export-ydpi="100.8"
     inkscape:export-xdpi="100.8"
     transform="matrix(0.88941356,0,0,1.0592965,7.3184601,-37.875117)"
     id="g58"
     stroke-width="0.92568"
     stroke-linecap="round"
     stroke="#ffffff">
    <path
       id="path54"
       d="m 324.65,220.18 c 6.2607,-2.5801 12.121,-3.6875 19.302,-3.6875 6.8965,0 12.417,1.1416 18.189,3.5332" />
    <path
       id="path56"
       d="m 360.95,208.09 c -5.0928,-1.957 -11.332,-3.1084 -18.072,-3.1084 -6.8008,0 -13.09,1.1719 -18.207,3.1602" />
  </g>
  <path
     inkscape:export-ydpi="100.8"
     inkscape:export-xdpi="100.8"
     id="path60"
     stroke-width="0.898507"
     stroke-linecap="round"
     stroke="#ffffff"
     fill="none"
     d="m 328.89483,191.5791 c -5.01336,-1.97273 -10.11708,-3.40448 -15.86358,-3.40448 -5.85501,0 -11.49745,1.47306 -16.78768,3.51719" />
  <polygon
     inkscape:export-ydpi="100.8"
     inkscape:export-xdpi="100.8"
     transform="matrix(0.88941356,0,0,1.0592965,7.3184601,-37.875117)"
     id="polygon62"
     fill="#ffffff"
     points="340.3,209.65 343.14,211.07 345.99,209.65 343.14,208.23 " />
  <polygon
     inkscape:export-ydpi="100.8"
     inkscape:export-xdpi="100.8"
     transform="matrix(0.88941356,0,0,1.0592965,7.3184601,-37.875117)"
     id="polygon64"
     fill="#ffffff"
     points="357.61,211.5 354.58,212.45 352,210.59 355.03,209.64 " />
  <polygon
     inkscape:export-ydpi="100.8"
     inkscape:export-xdpi="100.8"
     transform="matrix(0.88941356,0,0,1.0592965,7.3184601,-37.875117)"
     id="polygon66"
     fill="#ffffff"
     points="328.68,211.5 331.71,212.45 334.29,210.59 331.26,209.64 " />
  <path
     inkscape:export-ydpi="100.8"
     inkscape:export-xdpi="100.8"
     id="path68"
     stroke-width="1.07819"
     stroke-linejoin="bevel"
     stroke="#20201e"
     fill="#ffffff"
     d="m 330.37125,105.51126 c -5.39554,-3.00459 -11.30889,-4.5822 -17.83719,-4.5822 -6.52829,0 -12.85647,1.72241 -18.42953,4.72753 5.39553,3.00205 11.51612,4.69237 18.04531,4.69237 6.53719,0.0106 12.65635,-1.83258 18.22408,-4.83039 z" />
  <path
     inkscape:export-ydpi="100.8"
     inkscape:export-xdpi="100.8"
     id="path70"
     stroke-width="1.07819"
     stroke-linejoin="bevel"
     stroke="#20201e"
     fill="#ffffff"
     d="m 329.97102,92.026413 -0.004,-0.0074 c -4.85006,-2.381299 -10.4933,-3.830099 -17.82029,-3.830099 -7.33588,0 -13.00767,1.449754 -17.99995,3.837408 0,0 0.54459,5.512155 0.56718,7.334887 0.0269,2.052911 -0.45513,6.259591 -0.45513,6.259591 5.57271,-3.00512 11.74915,-4.69438 18.27744,-4.69438 6.40307,0 12.91073,1.56512 17.83719,4.5822 -0.80936,-1.92792 -0.40023,-13.474247 -0.40023,-13.474247 z" />
  <path
     inkscape:export-ydpi="100.8"
     inkscape:export-xdpi="100.8"
     id="path72"
     stroke-width="1.07819"
     stroke-linejoin="bevel"
     stroke="#20201e"
     fill="#ffffff"
     d="m 294.27885,105.58541 c 5.24532,-2.97101 11.72959,-4.65921 18.25788,-4.65921 6.40307,0 11.77851,1.07529 17.83719,4.5822 -0.24406,-0.81051 -0.40736,-3.32842 -0.46034,-4.24185 -5.36254,-2.372612 -11.27688,-3.719402 -17.36402,-3.719402 -6.15465,0 -12.34684,1.420305 -17.90212,3.841542 -0.11562,0.94277 -0.36466,4.18422 -0.36466,4.18422 z" />
  <path
     inkscape:export-ydpi="100.8"
     inkscape:export-xdpi="100.8"
     id="path74"
     stroke-width="1.07819"
     stroke="#20201e"
     fill="#ffffff"
     d="m 342.00478,56.884251 c -1.29676,-0.902054 -2.96263,-0.38069 -3.72006,1.165862 -0.65056,1.32518 -0.41865,2.96889 0.47684,3.981154 -3.70529,5.349236 -10.46839,15.108746 -12.10047,17.476274 -0.47945,-0.254994 -0.97631,-0.497064 -1.49306,-0.723097 0.14679,-1.815528 1.2177,-15.669114 1.78577,-23.03758 1.23424,0.03362 2.37295,-0.939819 2.69519,-2.423777 0.37609,-1.733221 -0.49682,-3.501187 -1.95253,-3.949587 -1.45313,-0.448442 -2.93747,0.592232 -3.31449,2.324415 -0.32311,1.484498 0.27533,2.993783 1.3689,3.67703 -2.67954,7.243363 -7.87879,21.300334 -7.89177,21.358595 -0.003,0.01398 -8.7e-4,0.02849 -0.004,0.0429 -0.4725,-0.06674 -0.95807,-0.126204 -1.45312,-0.174826 -0.0982,-0.779473 -2.32778,-17.0748 -3.48988,-25.561884 1.3359,-0.372406 2.33035,-1.796355 2.33035,-3.501187 0,-1.98724 -1.35235,-3.600442 -3.02178,-3.600442 -1.66943,0 -3.02259,1.613308 -3.02259,3.600442 0,1.704832 0.99712,3.128739 2.33213,3.501187 -1.15694,8.449055 -3.37265,24.63394 -3.48899,25.548113 -0.51679,0.04968 -1.02229,0.108101 -1.51565,0.177411 -0.004,-0.02066 -0.003,-0.03824 -0.008,-0.05688 -0.0122,-0.05847 -5.21232,-14.117244 -7.89008,-21.359655 1.09176,-0.682748 1.68935,-2.191472 1.36712,-3.67703 -0.37609,-1.732161 -1.86136,-2.77292 -3.31529,-2.324414 -1.45392,0.448506 -2.32777,2.216366 -1.95084,3.947998 0.32311,1.485981 1.46006,2.458415 2.6943,2.424306 0.56804,7.360204 1.63554,21.184871 1.78577,23.029106 -0.50725,0.220344 -0.99535,0.455688 -1.46611,0.703436 -1.69807,-2.460004 -8.38433,-12.111996 -12.06312,-17.420131 0.89724,-1.012231 1.12831,-2.655974 0.47945,-3.981154 -0.75653,-1.546572 -2.4233,-2.067958 -3.72095,-1.165861 -1.29677,0.901535 -1.73543,2.885629 -0.97889,4.432202 0.65056,1.324121 1.96729,1.893599 3.14772,1.461194 2.21224,6.862123 9.35308,28.947395 9.62613,29.252473 4.92219,-2.38596 10.58224,-3.837408 17.91634,-3.837408 7.33073,0 12.989,1.449753 17.9119,3.835289 0.271,-0.305681 7.50612,-22.20921 9.77555,-29.250354 1.18123,0.432405 2.49711,-0.137063 3.14683,-1.461194 0.72932,-1.545513 0.29351,-3.529576 -1.00504,-4.431037 z" />
  <polygon
     inkscape:export-ydpi="100.8"
     inkscape:export-xdpi="100.8"
     transform="matrix(0.88941356,0,0,1.0592965,7.3184601,-37.875117)"
     id="polygon76"
     points="340,123.62 342.84,125.04 345.69,123.62 342.84,122.2 " />
  <polygon
     inkscape:export-ydpi="100.8"
     inkscape:export-xdpi="100.8"
     transform="matrix(0.88941356,0,0,1.0592965,7.3184601,-37.875117)"
     id="polygon78"
     points="328.38,125.46 331.41,126.4 333.99,124.54 330.96,123.6 " />
  <polygon
     inkscape:export-ydpi="100.8"
     inkscape:export-xdpi="100.8"
     transform="matrix(0.88941356,0,0,1.0592965,7.3184601,-37.875117)"
     id="polygon80"
     points="357.31,125.47 354.28,126.42 351.7,124.56 354.73,123.61 " />
  <g
     inkscape:export-ydpi="100.8"
     inkscape:export-xdpi="100.8"
     style="fill:#000000"
     transform="translate(-3.0429179,53.758217)"
     id="g566">
    <g
       style="fill:#000000"
       stroke-width="0.85312"
       id="g94"
       transform="matrix(0.88941356,0,0,1.0592965,7.3184601,-37.875117)">
      <path
         style="fill:#000000"
         d="m 60.634,220.65 h -0.96924 v -5.8223 l -4.6655,-5.2246 H 54.9519 v -30.82 h 0.04736 l 6.0703,-5.8062 h 0.03857 v -9.9331 c 0,-0.86816 -0.67383,-1.5713 -1.5034,-1.5713 h -8.398 v 5.3989 l -4.7134,1.5615 -4.3433,-1.5615 v -5.3989 h -10.351 v 5.3989 l -4.3442,1.5615 -4.7129,-1.5615 v -5.3989 h -8.3965 c -0.83008,0 -1.5029,0.70312 -1.5029,1.5713 v 9.9331 h 0.01709 l 6.0918,5.8062 v 30.82 l -4.666,5.2246 v 5.8223 h -0.97021 c -0.86816,0 -1.5718,0.7041 -1.5718,1.5732 v 3.6943 c 0,0.86719 0.70361,1.5713 1.5718,1.5713 h 47.317 c 0.86914,0 1.5723,-0.7041 1.5723,-1.5713 v -3.6943 c 0,-0.86 -0.704,-1.57 -1.573,-1.57 z"
         stroke="#000000"
         stroke-linecap="square"
         id="path82" />
      <line
         style="fill:#000000"
         x1="15.823"
         x2="57.782001"
         y1="220.64999"
         y2="220.64999"
         fill="none"
         stroke="#ffffff"
         stroke-linecap="round"
         id="line84" />
      <line
         style="fill:#000000"
         x1="16.007999"
         x2="57.598"
         y1="214.83"
         y2="214.83"
         fill="none"
         stroke="#ffffff"
         stroke-linecap="round"
         id="line86" />
      <line
         style="fill:#000000"
         x1="53.161999"
         x2="20.075001"
         y1="209.61"
         y2="209.61"
         fill="none"
         stroke="#ffffff"
         stroke-linecap="round"
         id="line88" />
      <line
         style="fill:#000000"
         x1="20.259001"
         x2="53.347"
         y1="178.78999"
         y2="178.78999"
         fill="none"
         stroke="#ffffff"
         stroke-linecap="round"
         id="line90" />
      <line
         style="fill:#000000"
         x1="14.899"
         x2="59.814999"
         y1="172.98"
         y2="172.98"
         fill="none"
         stroke="#ffffff"
         stroke-linecap="round"
         id="line92" />
    </g>
  </g>
  <path
     inkscape:export-ydpi="100.8"
     inkscape:export-xdpi="100.8"
     id="path96"
     stroke-width="1.07819"
     stroke="#20201e"
     fill="#ffffff"
     d="m 60.929641,112.11067 c 0.773025,0 1.39798,-0.74481 1.39798,-1.66553 v -3.91336 c 0,-0.92067 -0.624937,-1.665 -1.39798,-1.665 H 18.84437 c -0.772589,0 -1.39798,0.74431 -1.39798,1.665 v 3.91336 c 0,0.92068 0.625365,1.66553 1.39798,1.66553 z" />
  <rect
     inkscape:export-ydpi="100.8"
     inkscape:export-xdpi="100.8"
     id="rect98"
     stroke-width="1.07819"
     stroke="#20201e"
     fill="#ffffff"
     height="6.1680717"
     width="40.360699"
     y="98.699974"
     x="19.707102" />
  <polygon
     inkscape:export-ydpi="100.8"
     inkscape:export-xdpi="100.8"
     transform="matrix(0.88941356,0,0,1.0592965,7.3184601,-37.875117)"
     id="polygon100"
     stroke-width="1.1108"
     stroke-linejoin="bevel"
     stroke="#20201e"
     fill="#ffffff"
     points="59.308,128.93 54.642,123.7 18.595,123.7 13.929,128.93 " />
  <polygon
     inkscape:export-ydpi="100.8"
     inkscape:export-xdpi="100.8"
     transform="matrix(0.88941356,0,0,1.0592965,7.3184601,-37.875117)"
     id="polygon102"
     stroke-width="1.1108"
     stroke-linejoin="round"
     stroke="#20201e"
     fill="#ffffff"
     points="60.73,87.059 54.642,92.883 18.595,92.883 12.487,87.059 " />
  <rect
     inkscape:export-ydpi="100.8"
     inkscape:export-xdpi="100.8"
     id="rect104"
     stroke-width="1.07819"
     stroke="#20201e"
     fill="#ffffff"
     height="32.647518"
     width="32.017998"
     y="60.515522"
     x="23.857105" />
  <path
     inkscape:export-ydpi="100.8"
     inkscape:export-xdpi="100.8"
     id="path106"
     stroke-width="1.07819"
     stroke-linecap="square"
     stroke="#20201e"
     fill="#ffffff"
     d="m 60.013545,42.176979 h -7.467961 v 5.719565 l -4.190827,1.653138 -3.864236,-1.653138 v -5.719565 h -9.20543 v 5.719565 l -3.864235,1.653138 -4.191272,-1.653138 v -5.719565 h -7.467961 c -0.738285,0 -1.3367,0.744812 -1.3367,1.663943 V 54.364079 H 61.351579 V 43.840922 c -8.89e-4,-0.91947 -0.599465,-1.664155 -1.337678,-1.664155 z" />
  <path
     inkscape:export-ydpi="100.8"
     inkscape:export-xdpi="100.8"
     style="stroke-width:0.970645;fill:#000000"
     id="path108"
     fill="#20201e"
     d="m 210.87854,201.33522 c -0.55545,-0.36103 -5.55839,-6.21617 -10.19801,-6.21617 -2.41245,0 -4.30423,0.86689 -5.97188,1.63238 -1.69193,0.77585 -3.28923,1.50823 -5.60135,1.50823 -2.69475,0 -4.93171,-0.97964 -6.90639,-1.84339 -1.59205,-0.69516 -2.96699,-1.29722 -4.37413,-1.29722 -1.40617,0 -2.7812,0.60207 -4.37325,1.29722 -1.97379,0.86378 -4.21128,1.84339 -6.90594,1.84339 -2.31256,0 -3.90986,-0.73241 -5.60135,-1.50823 -1.66809,-0.76551 -3.55943,-1.63238 -5.97143,-1.63238 -4.64078,0 -9.64391,5.85505 -10.19891,6.21617 0,0 2.01986,-1.50516 3.89946,-1.50516 1.88004,0 3.50811,1.57031 6.29971,1.57031 1.43187,0 2.59878,0.53481 4.07708,1.21236 1.87266,0.85964 4.20256,1.92718 7.49571,1.92718 3.63325,0 6.57597,-1.28684 8.72479,-2.22622 0.978,-0.42827 2.0863,-0.91343 2.55448,-0.91343 0.4699,0 1.57729,0.48517 2.55529,0.91343 2.14927,0.9393 5.09154,2.22622 8.72523,2.22622 3.29235,0 5.62314,-1.06756 7.49571,-1.92718 1.47741,-0.67758 2.64477,-1.21236 4.07752,-1.21236 2.79116,0 4.90654,-1.57031 6.29883,-1.57031 1.39229,0 3.92231,1.50421 3.92231,1.50421 z" />
  <path
     inkscape:export-ydpi="100.8"
     inkscape:export-xdpi="100.8"
     id="path112"
     stroke-width="0.517228"
     stroke="#000000"
     d="m 166.46123,187.98808 c 2.90669,-1.4917 6.24893,-2.79929 10.57957,-2.79929 4.3294,0 7.67031,1.30653 10.57691,2.79611 0.15938,-0.1893 0.53938,-0.67447 1.32416,-1.9831 -2.44544,-3.15205 -6.00443,-4.88378 -11.82653,-4.88378 -6.21202,0 -9.603,1.93035 -12.048,5.08653 0.49807,1.53598 1.24518,1.58894 1.40527,1.77961 z" />
  <path
     inkscape:export-ydpi="100.8"
     inkscape:export-xdpi="100.8"
     id="path114"
     stroke-width="0.983749"
     stroke-linejoin="bevel"
     stroke="#000000"
     fill="#ffffff"
     d="m 188.67878,197.86073 c -3.5846,-1.87549 -7.25041,-2.80544 -11.51702,-2.80544 -4.2666,0 -8.26051,1.03446 -11.84432,2.90999 3.58372,1.8776 7.51092,2.96794 11.77762,2.96794 4.26918,0 8.00472,-1.19701 11.58906,-3.07196 z" />
  <path
     inkscape:export-ydpi="100.8"
     inkscape:export-xdpi="100.8"
     sodipodi:nodetypes="cscsccc"
     id="path116"
     stroke-width="0.517228"
     stroke="#000000"
     d="m 188.58094,186.34617 c 2.25742,-4.49374 5.22744,-12.96896 1.5161,-27.39235 -3.11384,-12.1014 -9.24522,-23.02186 -16.80601,-21.53908 -6.17245,0.67935 -12.23517,15.57309 -12.9959,24.69795 -0.69504,8.33686 1.32351,18.86921 4.60802,24.08624 l 23.68509,0.13771 z" />
  <ellipse
     inkscape:export-ydpi="100.8"
     inkscape:export-xdpi="100.8"
     ry="2.9609456"
     rx="2.486089"
     id="circle118"
     stroke-width="0.517228"
     stroke="#000000"
     cy="134.70546"
     cx="174.76437" />
  <path
     inkscape:export-ydpi="100.8"
     inkscape:export-xdpi="100.8"
     id="path120"
     stroke-width="0.517228"
     stroke-linejoin="bevel"
     stroke="#000000"
     d="m 187.45139,187.97749 -8.7e-4,-0.003 c -2.9067,-1.48863 -6.25018,-2.73616 -10.57691,-2.73616 -4.3302,0 -7.66941,1.24859 -10.57691,2.73923 0,0 -0.65142,5.04098 -0.71483,6.17676 -0.0977,1.74615 -0.24493,3.80891 -0.24493,3.80891 3.58327,-1.87548 7.57825,-2.90999 11.84343,-2.90999 4.18478,0 7.98426,0.99723 11.51702,2.80544 -0.12725,-1.39552 -0.27404,-2.78997 -0.56675,-4.88473 -0.16009,-1.10167 -0.68485,-5.01047 -0.68485,-5.01047 z" />
  <path
     inkscape:export-ydpi="100.8"
     inkscape:export-xdpi="100.8"
     id="path122"
     stroke-width="0.517228"
     stroke-linejoin="bevel"
     stroke-linecap="round"
     stroke="#ffffff"
     fill="none"
     d="m 187.34466,194.7358 c -3.22199,-1.19171 -6.66189,-1.84656 -10.21136,-1.84656 -3.60977,0 -7.29897,0.70033 -10.60803,1.93756" />
  <g
     inkscape:export-ydpi="100.8"
     inkscape:export-xdpi="100.8"
     transform="matrix(0.88941356,0,0,1.0592965,7.3184601,-37.875117)"
     id="g128"
     stroke-width="0.53287"
     stroke-linecap="round"
     stroke="#ffffff"
     fill="none">
    <path
       id="path124"
       d="m 179.78,212.78 c 3.0269,-1.2188 6.4976,-2.21 10.86,-2.21 4.3857,0 7.8686,1.002 10.907,2.2285" />
    <path
       id="path126"
       d="m 203.52,210.63 c -3.8423,-3.0732 -6.917,-3.8965 -12.607,-3.8965 -4.7656,0 -9.6831,1.2617 -12.039,3.4199" />
  </g>
  <polygon
     inkscape:export-ydpi="100.8"
     inkscape:export-xdpi="100.8"
     transform="matrix(0.88941356,0,0,1.0592965,7.3184601,-37.875117)"
     id="polygon130"
     stroke-width="0.53287"
     stroke="#000000"
     fill="#ffffff"
     points="187.06,188.02 180.44,188.02 179.13,186.71 176.49,189.35 179.13,191.99 180.46,190.67 187.06,190.67 187.06,197.91 185.74,199.23 188.38,201.87 191.02,199.23 189.71,197.92 189.71,190.67 196.27,190.67 197.59,191.99 200.23,189.35 197.59,186.71 196.29,188.02 189.71,188.02 189.71,182.08 191.02,180.77 188.38,178.13 185.74,180.77 187.06,182.09 " />
  <path
     inkscape:export-ydpi="100.8"
     inkscape:export-xdpi="100.8"
     id="path132"
     stroke-width="1.28106"
     stroke-linejoin="round"
     stroke-linecap="round"
     stroke="#20201e"
     fill="#ffffff"
     d="m 209.95355,110.38402 c -0.55545,-0.36051 -5.55839,-6.21563 -10.1989,-6.21563 -2.412,0 -4.30379,0.8674 -5.97188,1.63184 -1.69158,0.77585 -3.28888,1.50876 -5.601,1.50876 -2.69474,0 -4.9317,-0.97913 -6.90683,-1.84296 -1.59169,-0.69621 -2.96699,-1.29775 -4.37369,-1.29775 -1.40616,0 -2.78075,0.60154 -4.3728,1.29775 -1.97378,0.86378 -4.21128,1.84296 -6.90638,1.84296 -2.31212,0 -3.90987,-0.73292 -5.60135,-1.50876 -1.6681,-0.76447 -3.55979,-1.63184 -5.97224,-1.63184 -4.63989,0 -9.64302,5.85505 -10.19801,6.21563 0,0 2.12925,-1.50462 3.89945,-1.50462 1.7702,0 3.50767,1.56977 6.29883,1.56977 1.43267,0 2.59958,0.53533 4.07796,1.21342 1.87266,0.85861 4.20301,1.92718 7.49571,1.92718 3.63281,0 6.57597,-1.28683 8.72479,-2.22664 0.97845,-0.42879 2.0863,-0.91395 2.55449,-0.91395 0.46989,0 1.57728,0.48517 2.55528,0.91395 2.14883,0.93982 5.09154,2.22664 8.72524,2.22664 3.2919,0 5.62269,-1.06862 7.49571,-1.92718 1.47696,-0.6781 2.64476,-1.21342 4.07707,-1.21342 2.7916,0 3.94286,-1.56977 6.29927,-1.56977 2.37474,0 3.92232,1.5042 3.92232,1.5042 z" />
  <path
     inkscape:export-ydpi="100.8"
     inkscape:export-xdpi="100.8"
     sodipodi:nodetypes="ccsssccscccc"
     id="path136"
     stroke-width="1.28106"
     stroke="#20201e"
     fill="#ffffff"
     d="m 190.81327,67.501904 c -2.62484,-10.20092 -9.1822,-19.588163 -15.29248,-20.906987 0.9081,-0.441197 1.54741,-1.502612 1.54741,-2.740823 0,-1.635554 -1.11266,-2.960628 -2.48583,-2.960628 -1.37281,0 -2.48626,1.32518 -2.48626,2.960628 0,1.154951 0.55718,2.154291 1.36801,2.641991 -0.42169,0.05483 -0.83556,0.159308 -1.24029,0.318615 -5.42071,2.124843 -13.99968,15.803223 -13.99968,27.14511 0,8.365794 2.4655,16.079871 5.75001,21.296906 l 23.87453,-0.20276 c 2.25911,-4.491417 6.67344,-13.133967 2.96458,-27.552052 z" />
  <path
     inkscape:export-ydpi="100.8"
     inkscape:export-xdpi="100.8"
     id="path138"
     stroke-width="0.983749"
     stroke-linejoin="bevel"
     stroke="#000000"
     fill="#ffffff"
     d="m 187.77158,106.92012 c -2.99999,-1.63915 -7.24997,-2.80597 -11.51524,-2.80597 -4.26723,0 -8.26185,1.03447 -11.84521,2.91095 3.58327,1.87548 7.51136,2.96635 11.77761,2.96635 4.26919,0 8.00473,-1.19701 11.58906,-3.07196 z" />
  <path
     inkscape:export-ydpi="100.8"
     inkscape:export-xdpi="100.8"
     id="path140"
     stroke-width="1.28106"
     stroke-linejoin="bevel"
     stroke="#20201e"
     fill="#ffffff"
     d="m 186.5264,97.036885 -0.002,-0.0032 c -2.90669,-1.488099 -6.25062,-2.735633 -10.57691,-2.735633 -4.3302,0 -7.66941,1.248593 -10.5769,2.739235 0,0 -0.65143,5.039923 -0.7144,6.177823 -0.0981,1.74466 -0.24537,3.80891 -0.24537,3.80891 3.58327,-1.87655 7.5778,-2.91095 11.84521,-2.91095 4.18345,0 7.98302,0.99672 11.51524,2.80597 -0.12681,-1.39657 -0.2736,-2.79199 -0.56631,-4.88579 -0.16009,-1.11226 -0.68485,-5.010475 -0.68485,-5.010475 z" />
  <path
     inkscape:export-ydpi="100.8"
     inkscape:export-xdpi="100.8"
     id="path142"
     stroke-width="1.28106"
     stroke-linejoin="bevel"
     stroke="#20201e"
     fill="#ffffff"
     d="m 164.40668,107.02605 c 3.58327,-1.87654 7.57781,-2.91095 11.84521,-2.91095 4.18345,0 7.98302,0.99672 11.51524,2.80597 -0.0908,-1.1684 -0.30791,-1.89667 -0.44471,-3.38784 -3.54938,-1.48089 -7.14786,-2.23649 -11.12567,-2.23649 -4.02282,0 -8.00908,0.86999 -11.59262,2.38289 -0.0178,1.31353 -0.20456,3.34737 -0.20456,3.34737 z" />
  <path
     inkscape:export-ydpi="100.8"
     inkscape:export-xdpi="100.8"
     id="path144"
     stroke-width="1.28106"
     stroke="#20201e"
     fill="#ffffff"
     d="m 165.36725,97.036885 c 2.90714,-1.489582 6.24938,-2.765187 10.58046,-2.798237 3.68751,-0.02892 7.67075,1.306536 10.5778,2.796119 0.15938,-0.190345 0.8347,-0.434481 1.32371,-1.983109 -2.44455,-3.152043 -6.07914,-4.798402 -11.90124,-4.798402 -6.21246,0 -9.52918,1.844977 -11.97329,5.001151 0.48029,1.546573 1.2274,1.588945 1.38749,1.779618 z" />
  <line
     inkscape:export-ydpi="100.8"
     inkscape:export-xdpi="100.8"
     id="line146"
     stroke-width="0.983749"
     stroke="#000000"
     fill="#ffffff"
     y2="94.240341"
     y1="90.257385"
     x2="175.95128"
     x1="175.95128" />
  <polygon
     inkscape:export-ydpi="100.8"
     inkscape:export-xdpi="100.8"
     transform="matrix(0.88941356,0,0,1.0592965,8.7529054,-38.233728)"
     id="polygon148"
     stroke-width="0.76986"
     stroke="#000000"
     fill="#ffffff"
     points="179.4,102.16 178.09,100.85 175.45,103.49 178.09,106.13 179.41,104.81 186.01,104.81 186.01,112.06 184.69,113.38 187.33,116.02 189.97,113.38 188.66,112.07 188.66,104.81 195.23,104.81 196.55,106.13 199.19,103.49 196.55,100.85 195.24,102.16 188.66,102.16 188.66,96.226 189.97,94.916 187.33,92.278 184.69,94.916 186.01,96.24 186.01,102.16 " />
  <g
     inkscape:export-ydpi="100.8"
     inkscape:export-xdpi="100.8"
     style="fill:#000000"
     transform="translate(9.1287538,54.26537)"
     id="g600">
    <path
       style="fill:#000000"
       d="m 370.23477,140.61634 c 0,0 0.98671,-6.31542 0.98671,-7.19686 0,-0.88033 0.73915,-1.02774 1.47919,0.14741 0.74003,1.17516 4.06924,6.90196 4.06924,6.90196 l -6.53719,0.13771 z"
       fill="#20201e"
       stroke="#20201e"
       stroke-width="0.828077"
       id="path150" />
    <path
       style="fill:#000000"
       d="m 414.46531,189.05797 c -0.33441,-2.84686 -0.79213,-5.5613 -1.348,-8.14228 l -1.78665,-0.85033 1.19341,-1.69964 c -0.68009,-2.73002 -1.47047,-5.30061 -2.33818,-7.71666 l -1.69024,-0.56999 0.84494,-1.71607 c -0.90853,-2.29803 -1.88395,-4.44205 -2.89753,-6.43798 l -1.57559,-0.37654 0.56543,-1.55018 c -1.13525,-2.08596 -2.3026,-3.99206 -3.46035,-5.72168 l -1.66765,-0.21776 0.44558,-1.54753 c -1.35325,-1.8936 -2.6726,-3.54101 -3.89297,-4.9484 l -1.67023,-0.11172 0.29184,-1.42391 c -2.97571,-3.20839 -5.08024,-4.76895 -5.08024,-4.76895 l -3.7809,1.37073 c 0,0 -1.80836,-1.17571 -3.28754,-2.34984 0,0 -0.98671,-3.916 -1.31411,-6.0703 -0.33005,-2.1527 -1.31677,-1.17359 -1.64417,-0.58758 -0.33005,0.58758 -3.74087,5.09119 -3.74087,5.09119 0,0 -2.04032,-0.33309 -3.49255,0 -2.13753,0.48982 -3.12424,2.20345 -5.59014,4.99395 -1.79964,2.03375 -2.87841,3.81824 -3.49335,5.72635 -0.61669,1.90906 0.12247,1.90906 -0.12334,3.67078 -0.24754,1.7633 -6.90594,14.97951 -7.64424,16.59494 -0.74089,1.61532 -2.52753,6.55492 0.98583,9.69245 0.98493,0.88137 1.72581,1.32306 2.34164,1.61479 0,0 0.98672,-0.29172 1.35672,-0.8793 0.0651,-0.1055 0.0999,-0.17068 0.11638,-0.20586 0.0113,-0.0404 0.0174,-0.0414 0,0 -0.0382,0.11483 -0.12506,0.54413 0.25363,1.08514 0.61668,0.88137 1.40883,0.81723 1.85007,0.88137 0.65664,0.0993 1.84829,-0.58654 2.83589,-2.34931 0.98583,-1.76171 1.60255,-2.35036 2.34254,-3.37756 0.73915,-1.02826 4.82053,-3.30257 6.41267,-6.46182 0.36915,-0.73292 1.23246,-0.44017 1.84829,0.14741 0.61669,0.58758 4.06836,0.73551 5.54843,-2.20291 0,0 0.6992,7.72492 -2.22006,13.07066 -4.80755,8.80953 -12.94631,11.01245 -15.41265,19.23682 h 50.55427 c 0,-2.84272 -0.12594,-5.57168 -0.35351,-8.19503 l -1.68153,-1.05723 1.42307,-1.64191 z"
       fill="#20201e"
       stroke="#20201e"
       stroke-width="0.828077"
       id="path152" />
    <path
       style="fill:#000000"
       d="m 388.42328,144.5993 c 0,0 21.53537,19.18915 21.53537,53.84616"
       fill="none"
       stroke="#ffffff"
       stroke-width="0.828077"
       id="path154" />
    <path
       style="fill:#000000"
       d="m 361.0827,179.70438 c 0.0178,-0.0318 0.009,-0.0318 0,0 z"
       fill="none"
       stroke="#20201e"
       stroke-width="0.828077"
       id="path156" />
    <path
       style="fill:#000000"
       d="m 383.9851,157.91466 c 0.40997,5.48111 -1.7267,9.39765 -1.80835,9.74001 0,0 5.17923,-3.18096 5.67259,-7.39177"
       fill="none"
       stroke="#ffffff"
       stroke-width="0.828077"
       id="path158" />
    <path
       style="fill:#000000"
       d="m 382.1707,167.64959 c 0,0 3.45252,2.0079 6.00096,0.73499"
       fill="none"
       stroke="#ffffff"
       stroke-width="0.828077"
       id="path160" />
    <path
       style="fill:#000000"
       d="m 360.96708,179.91624 c 0,0 2.30171,-3.52544 2.96006,-5.14023"
       fill="none"
       stroke="#20201e"
       stroke-width="0.828077"
       id="path162" />
    <path
       style="fill:#000000"
       d="m 375.14433,147.38525 c 0,0 -3.7913,0.0217 -5.05596,2.49517 -1.72582,3.37852 0.24754,3.81876 0.24754,3.81876 0,0 1.97166,0.735 3.32837,-1.46786 1.4444,-2.34571 0.2458,-3.81877 0.2458,-3.81877 l 1.22739,-1.02751 z"
       fill="none"
       stroke="#ffffff"
       stroke-width="0.828077"
       id="path164" />
    <path
       style="fill:#000000"
       d="m 356.77794,172.27872 c 1.35582,-0.44017 2.21829,-0.29379 2.83412,0.14793 0,0 -0.61581,-2.20345 0.49335,-4.11304 1.11087,-1.90906 2.96094,-2.05493 4.56171,-5.72582"
       fill="none"
       stroke="#ffffff"
       stroke-width="0.828077"
       id="path166" />
    <line
       style="fill:#000000"
       x1="392.77252"
       x2="395.12054"
       y1="149.44029"
       y2="147.68185"
       fill="none"
       stroke="#ffffff"
       stroke-width="0.828077"
       id="line168" />
    <line
       style="fill:#000000"
       x1="397.58423"
       x2="399.93228"
       y1="155.75368"
       y2="154.44017"
       fill="none"
       stroke="#ffffff"
       stroke-width="0.828077"
       id="line170" />
    <line
       style="fill:#000000"
       x1="401.89792"
       x2="404.6106"
       y1="163.08403"
       y2="161.7599"
       fill="none"
       stroke="#ffffff"
       stroke-width="0.828077"
       id="line172" />
    <line
       style="fill:#000000"
       x1="405.3577"
       x2="408.18604"
       y1="171.47365"
       y2="170.29784"
       fill="none"
       stroke="#ffffff"
       stroke-width="0.828077"
       id="line174" />
    <line
       style="fill:#000000"
       x1="408.06152"
       x2="411.02325"
       y1="181.31451"
       y2="180.28699"
       fill="none"
       stroke="#ffffff"
       stroke-width="0.828077"
       id="line176" />
    <line
       style="fill:#000000"
       x1="409.67136"
       x2="412.74875"
       y1="191.29309"
       y2="190.85876"
       fill="none"
       stroke="#ffffff"
       stroke-width="0.828077"
       id="line178" />
  </g>
  <path
     inkscape:export-ydpi="100.8"
     inkscape:export-xdpi="100.8"
     id="path180"
     stroke-width="1.07819"
     stroke="#20201e"
     fill="#ffffff"
     d="m 367.27302,51.470187 c 0,0 0.98672,-6.31489 0.98672,-7.195801 0,-0.880911 0.73914,-1.028259 1.47918,0.146893 0.74002,1.174653 4.06925,6.901952 4.06925,6.901952 l -6.53719,0.146183 z" />
  <path
     inkscape:export-ydpi="100.8"
     inkscape:export-xdpi="100.8"
     id="path182"
     stroke-width="1.07819"
     stroke="#20201e"
     fill="#ffffff"
     d="m 411.51245,99.907579 c -0.3344,-2.847919 -0.79126,-5.562896 -1.34799,-8.143872 l -1.78666,-0.849301 1.19253,-1.699642 c -0.67922,-2.730018 -1.46878,-5.300613 -2.33729,-7.717186 l -1.69113,-0.568959 0.83643,-1.702713 c -0.90854,-2.298038 -1.88396,-4.441525 -2.89664,-6.437557 l -1.57649,-0.377067 0.56631,-1.550175 c -1.13605,-2.086496 -2.3026,-3.992064 -3.46035,-5.721684 l -1.66854,-0.217759 0.44558,-1.547527 c -1.35414,-1.894128 -2.67349,-3.541546 -3.89377,-4.948927 l -1.66854,-0.111724 0.29097,-1.423906 c -2.9766,-3.207868 -5.08024,-4.768953 -5.08024,-4.768953 l -3.78089,1.371153 c 0,0 -1.80747,-1.175183 -3.28754,-2.349837 0,0 -0.98672,-3.916008 -1.31411,-6.069769 -0.33006,-2.153762 -1.31589,-1.175184 -1.64506,-0.587581 -0.32832,0.587581 -3.74008,5.090131 -3.74008,5.090131 0,0 -2.04031,-0.332068 -3.49423,0 -2.13584,0.490857 -3.12247,2.203443 -5.59015,4.993418 -1.79706,2.035332 -2.87583,3.819294 -3.49166,5.727298 -0.61668,1.909065 0.12248,1.909065 -0.12247,3.67131 -0.24841,1.762246 -6.90683,14.978453 -7.64513,16.59388 -0.74089,1.615321 -2.52665,6.555456 0.98583,9.691927 0.98493,0.881367 1.7267,1.323062 2.34253,1.615321 0,0 0.98583,-0.292238 1.35583,-0.879819 0.066,-0.104977 0.099,-0.169138 0.11551,-0.204826 0.0122,-0.0393 0.0182,-0.04195 0,0 -0.0373,0.114309 -0.12333,0.54361 0.25449,1.084614 0.61668,0.881885 1.40883,0.816198 1.84918,0.881885 0.65751,0.0983 1.84918,-0.586543 2.8367,-2.349837 0.98671,-1.762246 1.60334,-2.350367 2.34342,-3.378097 0.73829,-1.02774 4.81973,-3.302039 6.41178,-6.461285 0.36915,-0.732916 1.23246,-0.440688 1.84829,0.147412 0.61669,0.587581 4.06925,0.734993 5.54843,-2.203443 0,0 0.6992,7.72545 -2.21917,13.07066 -4.80835,8.811118 -12.94631,11.012448 -15.41265,19.237888 h 50.55338 c 0,-2.8422 -0.12594,-5.57116 -0.35351,-8.1961 l -1.68063,-1.05619 1.44974,-1.631319 z" />
  <path
     inkscape:export-ydpi="100.8"
     inkscape:export-xdpi="100.8"
     id="path184"
     stroke-width="0.828077"
     stroke="#20201e"
     fill="none"
     d="m 385.46153,55.453142 c 0,0 21.53537,19.190215 21.53537,53.846158" />
  <path
     inkscape:export-ydpi="100.8"
     inkscape:export-xdpi="100.8"
     id="path186"
     stroke-width="0.828077"
     stroke="#20201e"
     fill="none"
     d="m 358.12096,90.787036 c 0.0178,-0.04237 0.0178,-0.04237 0,0 z" />
  <path
     inkscape:export-ydpi="100.8"
     inkscape:export-xdpi="100.8"
     id="path188"
     stroke-width="0.828077"
     stroke="#20201e"
     fill="none"
     d="m 381.02336,68.764262 c 0.41082,5.481118 -1.72671,9.397125 -1.80836,9.739489 0,0 5.17923,-3.180961 5.67179,-7.391771" />
  <path
     inkscape:export-ydpi="100.8"
     inkscape:export-xdpi="100.8"
     id="path190"
     stroke-width="0.828077"
     stroke="#20201e"
     fill="none"
     d="m 379.21785,78.509789 c 0,0 3.45252,2.008427 6.00096,0.735512" />
  <path
     inkscape:export-ydpi="100.8"
     inkscape:export-xdpi="100.8"
     id="path192"
     stroke-width="0.828077"
     stroke="#20201e"
     fill="none"
     d="m 358.00533,90.988302 c 0,0 2.30172,-3.524915 2.96095,-5.140236" />
  <path
     inkscape:export-ydpi="100.8"
     inkscape:export-xdpi="100.8"
     id="path194"
     stroke-width="0.828077"
     stroke="#20201e"
     fill="none"
     d="m 372.19148,58.244388 c 0,0 -3.7913,0.02121 -5.05507,2.495703 -1.72582,3.378096 0.24581,3.818234 0.24581,3.818234 0,0 1.97254,0.734993 3.32925,-1.467867 1.44441,-2.345706 0.24667,-3.818234 0.24667,-3.818234 l 1.22739,-1.028577 z" />
  <path
     inkscape:export-ydpi="100.8"
     inkscape:export-xdpi="100.8"
     id="path196"
     stroke-width="0.828077"
     stroke="#20201e"
     fill="none"
     d="m 353.81619,83.350774 c 1.35672,-0.440169 2.22007,-0.292757 2.8359,0.147412 0,0 -0.61581,-2.202913 0.49248,-4.112507 1.11087,-1.909064 2.95925,-2.056518 4.5626,-5.727298" />
  <line
     inkscape:export-ydpi="100.8"
     inkscape:export-xdpi="100.8"
     id="line198"
     stroke-width="0.828077"
     stroke="#20201e"
     fill="none"
     y2="58.537811"
     y1="60.299423"
     x2="392.15881"
     x1="389.81964" />
  <line
     inkscape:export-ydpi="100.8"
     inkscape:export-xdpi="100.8"
     id="line200"
     stroke-width="0.828077"
     stroke="#20201e"
     fill="none"
     y2="65.292946"
     y1="66.613892"
     x2="396.97055"
     x1="394.63138" />
  <line
     inkscape:export-ydpi="100.8"
     inkscape:export-xdpi="100.8"
     id="line202"
     stroke-width="0.828077"
     stroke="#20201e"
     fill="none"
     y2="72.620102"
     y1="73.944221"
     x2="401.65775"
     x1="398.94504" />
  <line
     inkscape:export-ydpi="100.8"
     inkscape:export-xdpi="100.8"
     id="line204"
     stroke-width="0.828077"
     stroke="#20201e"
     fill="none"
     y2="81.147438"
     y1="82.323257"
     x2="405.23322"
     x1="402.39597" />
  <line
     inkscape:export-ydpi="100.8"
     inkscape:export-xdpi="100.8"
     id="line206"
     stroke-width="0.828077"
     stroke="#20201e"
     fill="none"
     y2="91.136604"
     y1="92.164124"
     x2="408.0704"
     x1="405.10867" />
  <line
     inkscape:export-ydpi="100.8"
     inkscape:export-xdpi="100.8"
     id="line208"
     stroke-width="0.828077"
     stroke="#20201e"
     fill="none"
     y2="101.70839"
     y1="102.15329"
     x2="409.79587"
     x1="406.70959" />
  <path
     inkscape:export-ydpi="100.8"
     inkscape:export-xdpi="100.8"
     id="path210"
     stroke-width="0.766461"
     stroke-linejoin="round"
     stroke="#000000"
     d="m 458.65137,193.65532 c -3.3353,-7.88572 -2.9983,-21.93274 -2.71947,-27.3754 5.27485,-0.43086 9.06846,-1.62051 9.06846,-3.0227 0,-1.37635 -3.65149,-2.54888 -8.77344,-2.99887 3.27099,-2.0079 5.50929,-6.06659 5.50929,-10.7508 0,-6.67855 -4.54348,-12.09187 -10.15087,-12.09187 -5.6074,0 -10.15088,5.41343 -10.15088,12.09187 0,4.6841 2.23919,8.7428 5.50929,10.7508 -5.12106,0.44999 -8.77424,1.62252 -8.77424,2.99887 0,1.40219 3.79566,2.59188 9.06935,3.0227 0.27968,5.44341 0.61668,19.49 -2.71858,27.3754 -6.53683,1.56511 -11.1239,5.2396 -11.1239,9.51916 h 36.37702 c 0,-4.27956 -4.58048,-7.95532 -11.11767,-9.52308 z" />
  <path
     inkscape:export-ydpi="100.8"
     inkscape:export-xdpi="100.8"
     id="path212"
     stroke-width="1.07819"
     stroke-linejoin="round"
     stroke="#000000"
     fill="#ffffff"
     d="m 458.65137,105.09813 c -3.3353,-7.886779 -2.9983,-21.933792 -2.71947,-27.375398 5.27485,-0.430858 9.06846,-1.621041 9.06846,-3.023232 0,-1.376344 -3.65149,-2.549409 -8.77344,-2.998868 3.27099,-2.007367 5.50929,-6.067121 5.50929,-10.75186 0,-6.677487 -4.54348,-12.09081 -10.15087,-12.09081 -5.6074,0 -10.15088,5.413429 -10.15088,12.09081 0,4.684633 2.23741,8.744387 5.50929,10.75186 -5.12106,0.44948 -8.77424,1.622524 -8.77424,2.998868 0,1.402191 3.79566,2.592416 9.06935,3.023232 0.27968,5.441818 0.61668,19.488937 -2.71858,27.375398 -6.53683,1.56511 -11.1239,5.23854 -11.1239,9.51863 h 36.37702 c 0,-4.27956 -4.58048,-7.95532 -11.11767,-9.52308 z" />
  <path
     inkscape:export-ydpi="100.8"
     inkscape:export-xdpi="100.8"
     id="path214"
     stroke-width="1.07819"
     stroke="#20201e"
     fill="#ffffff"
     d="m 122.00834,51.470187 c 0,0 -0.98672,-6.31489 -0.98672,-7.195801 0,-0.880911 -0.73872,-1.028259 -1.47918,0.146893 -0.74002,1.174653 -4.0688,6.901952 -4.0688,6.901952 l 6.52829,0.146183 z" />
  <path
     inkscape:export-ydpi="100.8"
     inkscape:export-xdpi="100.8"
     id="path216"
     stroke-width="1.07819"
     stroke="#20201e"
     fill="#ffffff"
     d="m 77.769798,99.907579 c 0.334401,-2.847919 0.792129,-5.562896 1.348439,-8.143872 l 1.786654,-0.849301 -1.192525,-1.699642 c 0.679218,-2.730018 1.469222,-5.300613 2.33729,-7.717186 l 1.690686,-0.568959 -0.835995,-1.702713 c 0.908091,-2.298038 1.883955,-4.441525 2.896286,-6.437557 l 1.576485,-0.377067 -0.565435,-1.550175 c 1.135692,-2.086496 2.302158,-3.992064 3.459463,-5.721684 l 1.668539,-0.217759 -0.445578,-1.547527 c 1.354132,-1.894128 2.673933,-3.541546 3.894208,-4.948927 L 97.0573,58.313486 96.765465,56.88958 c 2.976601,-3.207868 5.079795,-4.768953 5.079795,-4.768953 l 3.78134,1.371153 c 0,0 1.80791,-1.175183 3.28799,-2.349837 0,0 0.98582,-3.916008 1.31411,-6.069769 0.32962,-2.153762 1.31544,-1.175184 1.64417,-0.587581 0.32962,0.587581 3.74051,5.090131 3.74051,5.090131 0,0 2.04067,-0.332068 3.4938,0 2.13628,0.490857 3.12291,2.203443 5.59014,4.993418 1.79751,2.035332 2.87627,3.819294 3.49255,5.727298 0.61625,1.909065 -0.1229,1.909065 0.1229,3.67131 0.24798,1.762246 6.90558,14.978453 7.64424,16.59388 0.74133,1.615321 2.52754,6.555456 -0.98538,9.691927 -0.98583,0.881367 -1.72671,1.323062 -2.34209,1.615321 0,0 -0.98716,-0.292238 -1.35627,-0.879819 -0.066,-0.104977 -0.0999,-0.169138 -0.11595,-0.204826 -0.0117,-0.0393 -0.0182,-0.04195 0,0 0.0378,0.114309 0.12377,0.54361 -0.25449,1.084614 -0.61668,0.881885 -1.40839,0.816198 -1.84918,0.881885 -0.65794,0.0983 -1.84962,-0.586543 -2.83634,-2.349837 -0.98671,-1.762246 -1.6029,-2.350367 -2.34343,-3.378097 -0.73872,-1.02774 -4.81973,-3.302039 -6.41178,-6.461285 -0.36958,-0.732916 -1.23246,-0.440688 -1.84873,0.147412 -0.61625,0.587581 -4.06925,0.734993 -5.54799,-2.203443 0,0 -0.69963,7.72545 2.21918,13.07066 4.80799,8.811118 12.9463,11.012448 15.41354,19.237888 H 77.123372 c 0,-2.8422 0.125941,-5.57116 0.353506,-8.1961 l 1.681081,-1.05619 -1.407942,-1.631319 z" />
  <path
     inkscape:export-ydpi="100.8"
     inkscape:export-xdpi="100.8"
     id="path218"
     stroke-width="0.828077"
     stroke="#20201e"
     fill="none"
     d="m 103.81983,55.453142 c 0,0 -21.53448,19.190215 -21.53448,53.846158" />
  <path
     inkscape:export-ydpi="100.8"
     inkscape:export-xdpi="100.8"
     id="path220"
     stroke-width="0.828077"
     stroke="#20201e"
     fill="none"
     d="m 131.1604,90.787036 c -0.0178,-0.04237 -0.0178,-0.04237 0,0 z" />
  <path
     inkscape:export-ydpi="100.8"
     inkscape:export-xdpi="100.8"
     id="path222"
     stroke-width="0.828077"
     stroke="#20201e"
     fill="none"
     d="m 108.25801,68.764262 c -0.41083,5.481118 1.7267,9.397125 1.8088,9.739489 0,0 -5.17968,-3.180961 -5.67215,-7.391771" />
  <path
     inkscape:export-ydpi="100.8"
     inkscape:export-xdpi="100.8"
     id="path224"
     stroke-width="0.828077"
     stroke="#20201e"
     fill="none"
     d="m 110.06351,78.509789 c 0,0 -3.45341,2.008427 -6.00096,0.735512" />
  <path
     inkscape:export-ydpi="100.8"
     inkscape:export-xdpi="100.8"
     id="path226"
     stroke-width="0.828077"
     stroke="#20201e"
     fill="none"
     d="m 131.27603,90.988302 c 0,0 -2.30216,-3.524915 -2.9605,-5.140236" />
  <path
     inkscape:export-ydpi="100.8"
     inkscape:export-xdpi="100.8"
     id="path228"
     stroke-width="0.828077"
     stroke="#20201e"
     fill="none"
     d="m 117.08988,58.244388 c 0,0 3.7913,0.02121 5.05596,2.495703 1.72538,3.378096 -0.24667,3.818234 -0.24667,3.818234 0,0 -1.97254,0.734993 -3.32925,-1.467867 -1.44396,-2.345706 -0.24667,-3.818234 -0.24667,-3.818234 l -1.22739,-1.028577 z" />
  <path
     inkscape:export-ydpi="100.8"
     inkscape:export-xdpi="100.8"
     id="path230"
     stroke-width="0.828077"
     stroke="#20201e"
     fill="none"
     d="m 135.46517,83.350774 c -1.35761,-0.440169 -2.22007,-0.292757 -2.83545,0.147412 0,0 0.61537,-2.202913 -0.49335,-4.112507 -1.11088,-1.909064 -2.95962,-2.056518 -4.56261,-5.727298" />
  <line
     inkscape:export-ydpi="100.8"
     inkscape:export-xdpi="100.8"
     id="line232"
     stroke-width="0.828077"
     stroke="#20201e"
     fill="none"
     y2="58.537811"
     y1="60.299423"
     x2="97.122551"
     x1="99.4617" />
  <line
     inkscape:export-ydpi="100.8"
     inkscape:export-xdpi="100.8"
     id="line234"
     stroke-width="0.828077"
     stroke="#20201e"
     fill="none"
     y2="65.292946"
     y1="66.613892"
     x2="92.309036"
     x1="94.652649" />
  <line
     inkscape:export-ydpi="100.8"
     inkscape:export-xdpi="100.8"
     id="line236"
     stroke-width="0.828077"
     stroke="#20201e"
     fill="none"
     y2="72.620102"
     y1="73.944221"
     x2="87.625389"
     x1="90.338104" />
  <line
     inkscape:export-ydpi="100.8"
     inkscape:export-xdpi="100.8"
     id="line238"
     stroke-width="0.828077"
     stroke="#20201e"
     fill="none"
     y2="81.147438"
     y1="82.323257"
     x2="84.049057"
     x1="86.884506" />
  <line
     inkscape:export-ydpi="100.8"
     inkscape:export-xdpi="100.8"
     id="line240"
     stroke-width="0.828077"
     stroke="#20201e"
     fill="none"
     y2="91.136604"
     y1="92.164124"
     x2="81.212715"
     x1="84.172691" />
  <line
     inkscape:export-ydpi="100.8"
     inkscape:export-xdpi="100.8"
     id="line242"
     stroke-width="0.828077"
     stroke="#20201e"
     fill="none"
     y2="101.70839"
     y1="102.15329"
     x2="79.487251"
     x1="82.569077" />
  <g
     inkscape:export-ydpi="100.8"
     inkscape:export-xdpi="100.8"
     style="fill:#000000"
     transform="translate(11.664519,71.001419)"
     id="g583">
    <path
       style="fill:#000000"
       d="m 121.96387,143.0845 c 0,0 -0.98672,-6.31489 -0.98672,-7.19686 0,-0.88032 -0.73914,-1.02723 -1.47918,0.14793 -0.74004,1.17517 -4.0688,6.90196 -4.0688,6.90196 l 6.52829,0.13771 z"
       fill="#20201e"
       stroke="#20201e"
       stroke-width="0.828077"
       id="path244" />
    <path
       style="fill:#000000"
       d="m 77.727106,191.52613 c 0.334828,-2.84792 0.791702,-5.56236 1.347995,-8.1444 l 1.787099,-0.8493 -1.193416,-1.69858 c 0.680091,-2.73097 1.470023,-5.30062 2.337735,-7.71666 l 1.690242,-0.57 -0.835124,-1.70218 c 0.908091,-2.29857 1.883956,-4.44205 2.896642,-6.43798 l 1.576041,-0.37707 -0.565,-1.55017 c 1.135247,-2.0865 2.301713,-3.99207 3.459463,-5.72169 l 1.668095,-0.21775 -0.445578,-1.54753 c 1.353242,-1.8936 2.672598,-3.54102 3.893318,-4.9484 l 1.66943,-0.11172 -0.291408,-1.42391 c 2.976601,-3.20787 5.0798,-4.76895 5.0798,-4.76895 l 3.78134,1.3702 c 0,0 1.80791,-1.17519 3.28798,-2.34931 0,0 0.98583,-3.91601 1.31456,-6.0703 0.32919,-2.15323 1.31499,-1.17412 1.64372,-0.58706 0.32963,0.58706 3.74052,5.09119 3.74052,5.09119 0,0 2.04031,-0.33361 3.4929,0 2.13664,0.48982 3.1238,2.20291 5.59015,4.99342 1.79839,2.03427 2.87716,3.81876 3.49335,5.72677 0.61624,1.90906 -0.12248,1.90906 0.12289,3.67078 0.24755,1.76277 6.90559,14.97845 7.64469,16.59388 0.74133,1.61479 2.52665,6.55641 -0.98582,9.69192 -0.98583,0.88241 -1.72716,1.32201 -2.34254,1.61585 0,0 -0.98672,-0.29378 -1.35582,-0.88032 -0.066,-0.10551 -0.0999,-0.16966 -0.11596,-0.20483 -0.0122,-0.0414 -0.0182,-0.0414 0,0 0.0378,0.11483 0.12377,0.54413 -0.25448,1.08514 -0.61625,0.88241 -1.40839,0.8162 -1.85007,0.88241 -0.65708,0.0972 -1.84874,-0.58861 -2.83545,-2.35037 -0.98716,-1.76373 -1.60335,-2.35037 -2.34299,-3.37852 -0.73914,-1.02723 -4.82008,-3.30204 -6.41222,-6.46128 -0.36958,-0.73241 -1.23246,-0.43965 -1.84874,0.14741 -0.61625,0.5881 -4.06924,0.73499 -5.54843,-2.20291 0,0 -0.69919,7.72439 2.21962,13.0696 4.808,8.81059 12.94542,11.01244 15.41265,19.23788 H 77.071563 c 0,-2.84273 0.125506,-5.56957 0.353507,-8.19408 l 1.680636,-1.05826 -1.407053,-1.6525 z"
       fill="#20201e"
       stroke="#20201e"
       stroke-width="0.828077"
       id="path246" />
    <path
       style="fill:#000000"
       d="m 103.77536,147.06746 c 0,0 -21.53537,19.19021 -21.53537,53.8451"
       fill="none"
       stroke="#ffffff"
       stroke-width="0.828077"
       id="path248" />
    <path
       style="fill:#000000"
       d="m 131.11593,182.17254 c -0.0178,-0.0318 -0.0178,-0.0318 0,0 z"
       fill="none"
       stroke="#20201e"
       stroke-width="0.828077"
       id="path250" />
    <path
       style="fill:#000000"
       d="m 108.21353,160.38282 c -0.4104,5.48164 1.72716,9.39712 1.8088,9.74002 0,0 -5.17923,-3.18044 -5.67259,-7.39178"
       fill="none"
       stroke="#ffffff"
       stroke-width="0.828077"
       id="path252" />
    <path
       style="fill:#000000"
       d="m 110.01904,170.11775 c 0,0 -3.45252,2.0079 -6.00051,0.73499"
       fill="none"
       stroke="#ffffff"
       stroke-width="0.828077"
       id="path254" />
    <path
       style="fill:#000000"
       d="m 131.23156,182.3844 c 0,0 -2.30216,-3.5265 -2.9605,-5.14129"
       fill="none"
       stroke="#20201e"
       stroke-width="0.828077"
       id="path256" />
    <path
       style="fill:#000000"
       d="m 117.04541,149.85341 c 0,0 3.7913,0.0228 5.05552,2.4957 1.72626,3.37852 -0.24625,3.81824 -0.24625,3.81824 0,0 -1.97298,0.73551 -3.32925,-1.46787 -1.44396,-2.34518 -0.24667,-3.81824 -0.24667,-3.81824 l -1.22739,-1.02751 z"
       fill="none"
       stroke="#ffffff"
       stroke-width="0.828077"
       id="path258" />
    <path
       style="fill:#000000"
       d="m 135.4207,174.74688 c -1.35672,-0.43965 -2.21963,-0.29483 -2.83501,0.14793 0,0 0.61538,-2.20398 -0.49291,-4.11304 -1.11088,-1.90906 -2.96051,-2.05546 -4.56261,-5.72677"
       fill="none"
       stroke="#ffffff"
       stroke-width="0.828077"
       id="path260" />
    <line
       style="fill:#000000"
       x1="99.417236"
       x2="97.078072"
       y1="151.91904"
       y2="150.15001"
       fill="none"
       stroke="#ffffff"
       stroke-width="0.828077"
       id="line262" />
    <line
       style="fill:#000000"
       x1="94.609062"
       x2="92.26635"
       y1="158.23245"
       y2="156.90833"
       fill="none"
       stroke="#ffffff"
       stroke-width="0.828077"
       id="line264" />
    <line
       style="fill:#000000"
       x1="90.294518"
       x2="87.581802"
       y1="165.55217"
       y2="164.22806"
       fill="none"
       stroke="#ffffff"
       stroke-width="0.828077"
       id="line266" />
    <line
       style="fill:#000000"
       x1="86.840034"
       x2="84.006363"
       y1="173.94182"
       y2="172.76599"
       fill="none"
       stroke="#ffffff"
       stroke-width="0.828077"
       id="line268" />
    <line
       style="fill:#000000"
       x1="84.129105"
       x2="81.169136"
       y1="183.78267"
       y2="182.75516"
       fill="none"
       stroke="#ffffff"
       stroke-width="0.828077"
       id="line270" />
    <line
       style="fill:#000000"
       x1="82.52549"
       x2="79.443672"
       y1="193.76125"
       y2="193.32693"
       fill="none"
       stroke="#ffffff"
       stroke-width="0.828077"
       id="line272" />
  </g>
</svg>
